<?xml version="1.0" encoding="UTF-8"?>
<svg width="1200pt" height="1200pt" version="1.1" viewBox="0 0 1200 1200" xmlns="http://www.w3.org/2000/svg">
 <path d="m965.88 352.08-5.7617-4.6797c-0.48047-0.35938-1.0781-0.83984-1.5586-1.0781h-187.08v-115.56c0-47.52-38.641-86.039-86.039-86.039-47.398 0-86.039 38.52-86.039 86.039v115.56h-15.961c-12-33-43.559-56.52-80.641-56.52-37.078 0-68.762 23.52-80.762 56.52h-21.359c-11.879-33-43.559-56.52-80.641-56.52-37.078 0-68.762 23.641-80.762 56.52h-114.84v20.762c-0.48047-0.12109-1.0781-0.12109-1.5586-0.12109h-3.7188c-28.559 0-51.84 23.281-51.84 51.84v135c0 28.559 23.281 51.719 51.84 51.719h3.7188c0.48047 0 1.0781 0 1.5586-0.12109v20.762h109.56v429.12h36l0.003906-679.44c0-3.9609 0.48047-7.8008 1.4414-11.52 1.4414-6.6016 4.3203-12.719 8.2812-18 9.1211-12.48 23.762-20.52 40.32-20.52 16.559 0 31.199 8.0391 40.32 20.52 3.9609 5.2812 6.8398 11.398 8.2812 18 0.96094 3.7188 1.4414 7.5586 1.4414 11.52v17.281c0 9.8398 8.1602 18 18 18h46.559c9.9609 0 18-8.1602 18-18v-17.281c0-3.9609 0.48047-7.8008 1.4414-11.52 1.4414-6.6016 4.3203-12.719 8.3984-18 9-12.48 23.762-20.52 40.32-20.52 16.559 0 31.199 8.0391 40.32 20.52 3.9609 5.2812 6.8398 11.398 8.2812 18 0.96094 3.7188 1.4414 7.5586 1.4414 11.52v17.281c0 9.8398 8.0391 18 18 18h46.559c9.9609 0 18-8.1602 18-18l-0.007812-162.36c0-27.602 22.441-50.039 50.039-50.039 27.602 0 50.039 22.441 50.039 50.039v397.68c0 9.9609 8.0391 18 18 18h101.28c33.602 0 60.961 27.359 60.961 60.84v25.078c0 33.48-27.359 60.84-60.961 60.84h-101.28c-9.9609 0-18 8.0391-18 18v244.08h36l0.003907-226.08h83.281c53.398 0 96.961-43.441 96.961-96.84v-25.078c0-33.961-17.641-63.84-44.039-81.121h50.879c0.48047-0.23828 1.0781-0.71875 1.5586-1.0781l5.7617-4.6797 166.8-134.16zm-841.44 217.32c-0.48047 0.12109-1.0781 0.12109-1.5586 0.12109h-3.7227c-8.7617 0-15.84-7.0781-15.84-15.719v-135c0-8.7617 7.0781-15.84 15.84-15.84h3.7188c0.48047 0 1.0781 0 1.5586 0.23828zm109.56-95.16h-64.922v24h64.922v91.922h-73.559v-207.84h73.559zm695.88 115.92h-158.4v-91.922h130.92v-24h-130.92v-91.922h158.4zm36-15.961v-175.92l83.281 66.961v42z" fill="#fff"/>
</svg>
