<?xml version="1.0" encoding="UTF-8"?>
<svg width="1200pt" height="1200pt" version="1.1" viewBox="0 0 1200 1200" xmlns="http://www.w3.org/2000/svg">
 <g fill="#fff">
  <path d="m604.62 597.55v-85.223h-17.258v85.223c-4.4297 2.8789-7.5352 7.6328-7.5352 13.309 0 8.9141 7.2344 16.152 16.152 16.152 4.9688 0 9.2539-2.375 12.215-5.9141h75.938v-17.258h-73.754c-1.2695-2.6172-3.3125-4.6914-5.7578-6.2891z"/>
  <path d="m966.56 845.44c0 11.863-9.6172 21.477-21.477 21.477-11.863 0-21.48-9.6133-21.48-21.477s9.6172-21.48 21.48-21.48c11.859 0 21.477 9.6172 21.477 21.48"/>
  <path d="m966.56 974.07c0 11.863-9.6172 21.48-21.477 21.48-11.863 0-21.48-9.6172-21.48-21.48 0-11.859 9.6172-21.477 21.48-21.477 11.859 0 21.477 9.6172 21.477 21.477"/>
  <path d="m1089.3 790.84v-190.36c0-68.762-51.191-127.34-119.04-136.61v-0.3125h-3.3008c-5.1484-0.61328-10.379-1.0781-15.66-1.0781h-243.65c-31.141-23.496-69.758-37.621-111.68-37.621-41.93 0-80.543 14.113-111.68 37.621h-91.02v-115.34h0.16797v-277.66h-283.14v190.8c-0.023437 0.25391-0.023437 0.52734-0.046875 0.78125v363.06c6.7578 59.605 51.613 108.88 111.76 120.06 8.3398 1.5469 16.836 2.3398 25.246 2.3398h221.86c33.266 31.129 77.809 50.34 126.84 50.34s93.574-19.223 126.84-50.34h82.57v238.08c0 13.934 1.9805 27.719 5.8672 40.922 18.012 61.824 75.602 105 140.05 105 36.695 0 71.293-14.398 97.441-40.547 26.16-26.148 40.559-60.758 40.559-97.453v-195.02c0.027344 0 0.89062-4.7891 0.027344-6.6602zm-943.01-685.36h210v129h-96v-84h-24v84h-90zm-0.96094 170.88c0-2.0156 0.16797-3.9258 0.27734-5.8789h211.66v192h-124.36c-1.5117-0.19141-3.0352-0.43359-4.3203-0.66016-47.773-8.8789-82.512-50.242-83.258-98.688zm101.93 434.16c-6.2148 0-12.48-0.58984-18.672-1.7383-48.289-8.9766-83.328-51.145-83.328-100.26v-154.23c19.715 21.684 46.309 37.273 76.934 42.961 2.3867 0.42188 4.9336 0.83984 6.9961 1.0547 6.0703 0.83984 11.977 1.2461 18.07 1.2461h200.04c-23.328 31.078-37.332 69.539-37.332 111.3 0 36.672 10.812 70.812 29.219 99.66h-191.93zm348.71 50.34c-82.715 0-150-67.285-150-150s67.285-150 150-150 150 67.285 150 150-67.297 150-150 150zm457.33 139.62v92.039c0 27.07-10.668 52.645-30.012 72-19.344 19.344-44.914 30-71.988 30-48.551 0-91.922-32.508-105.5-79.129-2.9297-9.9492-4.4141-20.305-4.4141-30.793l-0.003907-238.08h124.71c5.6406 0.097657 11.305 0.61328 16.934 1.6562 29.605 5.4609 55.586 24.504 70.273 50.762l-0.003906 101.54zm0-171.96v14.914c-18.133-15.406-40.02-26.281-63.719-30.66-6.5039-1.2109-13.105-1.8125-19.691-2.0898v-0.17969h-3.8047c-0.58984-0.011718-1.1758-0.085937-1.7656-0.085937v0.085937l-211.57 0.003906c18.395-28.848 29.219-62.977 29.219-99.66 0-41.762-14.004-80.219-37.332-111.3h220.91c50.09 6.9961 87.77 50.207 87.77 100.92v128.05z"/>
 </g>
</svg>
