<?xml version="1.0" encoding="UTF-8"?>
<svg width="1200pt" height="1200pt" version="1.1" viewBox="0 0 1200 1200" xmlns="http://www.w3.org/2000/svg">
 <path d="m1037 309.45v-114.78h-18c-70.246 0-133.04 45.336-169.31 114.78h-3.9102c-21.719-74.879-90.805-129.82-172.59-129.82-21.793 0-42.852 4.043-62.449 11.363-19.453-7.2227-40.379-11.363-62.305-11.363-80.172 0-150.66 53.855-172.63 129.82h-88.152c-0.69531 0.57422-1.3906 1.1641-2.0039 1.8359l-99.602 61.414c-3.2773 2.3516-9.9375 6.6016-21.77 13.43l-130.47 80.434 254.81 157.12h83.449v378.7c0 9.9492 8.0508 18 18 18s18-8.0508 18-18v-378.7h407.58c-0.035156 0.44531-0.13281 0.875-0.13281 1.332 0 6.6367-0.625 13.117-1.5117 19.512-8.6523 61.906-57.66 110.91-119.57 119.57-6.3945 0.89844-12.875 1.5117-19.523 1.5117-9.9492 0-18 8.0508-18 18 0 9.9492 8.0508 18 18 18 91.906 0 167.55-70.586 175.79-160.38 0.49219-5.3516 2.3047-16.895 2.3047-22.367l-0.003906-172.19c0-9.3594 0.49219-18.672 1.4766-27.793 9.9492-99.457 71.449-176.23 146.53-186.93v777.7h36v-385.96h129.11v-314.23zm-874.04 194.46-60.551-37.344 60.551-37.332zm118.08 72.805-82.078-50.605v-119.06l82.078-50.617zm267.4-361.08c79.297 0 143.8 64.5 143.8 143.8 0 77.832-62.16 141.42-139.45 143.73v-194.88h-138.76c20.906-54.793 74.281-92.652 134.41-92.652zm268.56 372.05h-499.96v-242.23h199.75v115.12l-185.53-0.003906c-3.3125 0-6 2.6875-6 6s2.6875 6 6 6h185.53v64.262l16.141 1.6797c5.1367 0.52734 10.273 0.71875 15.504 0.71875 34.105 0 65.914-9.7188 93.121-26.281v23.891l16.141 1.6797c4.7148 0.49219 9.6367 0.71875 15.504 0.71875 56.293 0 106.57-26.039 139.56-66.66h4.2344zm-139.44-84.516v-18.898c31.309-32.375 50.688-76.344 50.688-124.84 0-58.223-27.949-109.92-70.992-142.8 5.2578-0.58984 10.559-0.99609 15.949-0.99609 79.297 0 143.8 64.5 143.8 143.8-0.003906 77.832-62.164 141.42-139.44 143.73zm157.57 104.02-0.14453-0.3125 0.52734 0.34766c-0.11719-0.011719-0.25-0.023438-0.38281-0.035157zm294.98-19.5h-93.109v-115.12h87.984c2.2188 0 4.0781-1.2617 5.125-3.0586zm0-124.05c-1.0312-1.8008-2.8906-3.0586-5.125-3.0586l-87.984-0.003906v-115.12h93.109z" fill="#fff"/>
</svg>
